HIERARCHY
ROOT SpineBase
{
  OFFSET 0.000000 0.000000 0.000000
  CHANNELS 6 Xposition Yposition Zposition Zrotation Xrotation Yrotation
  JOINT SpineMid
  {
    OFFSET -0.000000 27.760307 0.000000
    CHANNELS 3 Zrotation Xrotation Yrotation
    JOINT SpineShoulder
    {
      OFFSET -0.154091 20.731829 -0.686604
      CHANNELS 3 Zrotation Xrotation Yrotation
      JOINT Neck
      {
        OFFSET -0.084481 6.874050 -0.511692
        CHANNELS 3 Zrotation Xrotation Yrotation
        JOINT Head
        {
          OFFSET 0.096102 12.306484 -0.878322
          CHANNELS 3 Zrotation Xrotation Yrotation
          End Site
          {
            OFFSET 0 0 0
          }
        }
      }
      JOINT ShoulderLeft
      {
        OFFSET -14.843106 -1.283259 -0.841702
        CHANNELS 3 Zrotation Xrotation Yrotation
        JOINT ElbowLeft
        {
          OFFSET -4.533809 -24.962860 -0.515817
          CHANNELS 3 Zrotation Xrotation Yrotation
          JOINT WristLeft
          {
            OFFSET -1.756192 -19.412454 -5.707798
            CHANNELS 3 Zrotation Xrotation Yrotation
            JOINT HandLeft
            {
              OFFSET 1.173770 -3.990375 0.510587
              CHANNELS 3 Zrotation Xrotation Yrotation
              JOINT HandTipLeft
              {
                OFFSET -0.289433 -6.092892 -1.463559
                CHANNELS 3 Zrotation Xrotation Yrotation
                End Site
                {
                  OFFSET 0 0 0
                }
              }
              JOINT ThumbLeft
              {
                OFFSET 2.584383 -0.186701 -2.692467
                CHANNELS 3 Zrotation Xrotation Yrotation
                End Site
                {
                  OFFSET 0 0 0
                }
              }
            }
          }
        }
      }
      JOINT ShoulderRight
      {
        OFFSET 14.280936 -4.121328 0.237120
        CHANNELS 3 Zrotation Xrotation Yrotation
        JOINT ElbowRight
        {
          OFFSET -3.589689 -23.246253 -7.947179
          CHANNELS 3 Zrotation Xrotation Yrotation
          JOINT WristRight
          {
            OFFSET -6.636100 -19.385484 -11.492147
            CHANNELS 3 Zrotation Xrotation Yrotation
            JOINT HandRight
            {
              OFFSET 1.471584 -5.707576 -0.455580
              CHANNELS 3 Zrotation Xrotation Yrotation
              JOINT HandTipRight
              {
                OFFSET -1.221263 -4.684681 0.580327
                CHANNELS 3 Zrotation Xrotation Yrotation
                End Site
                {
                  OFFSET 0 0 0
                }
              }
              JOINT ThumbRight
              {
                OFFSET -3.472651 -1.093470 -0.897633
                CHANNELS 3 Zrotation Xrotation Yrotation
                End Site
                {
                  OFFSET 0 0 0
                }
              }
            }
          }
        }
      }
    }
  }
  JOINT HipLeft
  {
    OFFSET -7.310973 0.766056 -3.025527
    CHANNELS 3 Zrotation Xrotation Yrotation
    JOINT KneeLeft
    {
      OFFSET -2.225472 -31.594818 2.312220
      CHANNELS 3 Zrotation Xrotation Yrotation
      JOINT AnkleLeft
      {
        OFFSET -2.850659 -31.853426 8.233053
        CHANNELS 3 Zrotation Xrotation Yrotation
        JOINT FootLeft
        {
          OFFSET 3.135330 -6.133668 0.445560
          CHANNELS 3 Zrotation Xrotation Yrotation
          End Site
          {
            OFFSET 0 0 0
          }
        }
      }
    }
  }
  JOINT HipRight
  {
    OFFSET 5.641000 0.311233 -2.992258
    CHANNELS 3 Zrotation Xrotation Yrotation
    JOINT KneeRight
    {
      OFFSET -0.014276 -31.583402 4.932621
      CHANNELS 3 Zrotation Xrotation Yrotation
      JOINT AnkleRight
      {
        OFFSET -0.642083 -30.708592 9.734158
        CHANNELS 3 Zrotation Xrotation Yrotation
        JOINT FootRight
        {
          OFFSET 0.085801 -3.269759 -13.853825
          CHANNELS 3 Zrotation Xrotation Yrotation
          End Site
          {
            OFFSET 0 0 0
          }
        }
      }
    }
  }
}
MOTION
Frames: 9
Frame Time: 0.033333
109.853044 70.134427 399.200644 -3.768084 -0.722616 8.273642 -0.177649 0.243218 -8.424247 0.088997 0.231022 -0.150037 4.103310 -1.743795 0.316313 0.000000 0.000000 0.000000 0.431802 -3.528444 0.945973 2.124238 5.391787 -0.493777 -7.375832 16.470343 5.351815 1.640501 -23.208262 -3.834765 0.000000 0.000000 0.000000 0.000000 0.000000 0.000000 23.992061 -20.201598 0.136891 -12.096605 5.374225 6.124519 -38.019877 11.202545 9.474529 35.419523 21.862974 -8.720824 0.000000 0.000000 0.000000 0.000000 0.000000 0.000000 3.094232 1.514338 -8.446068 0.927966 -1.219455 0.163654 7.797270 18.071262 8.428380 0.000000 0.000000 0.000000 1.354677 -0.937787 -8.676343 2.894585 0.811915 0.521240 7.165386 -38.458109 58.080810 0.000000 0.000000 0.000000
110.060408 70.104217 399.178826 -3.585396 -0.694606 8.053885 -0.167932 0.257236 -8.195736 0.110131 0.224547 -0.141110 3.529881 -1.951016 0.272487 0.000000 0.000000 0.000000 0.388757 -3.255992 0.883349 2.061288 4.993196 -0.462921 -5.978440 16.825927 5.467211 -1.157187 -22.710895 -4.520127 0.000000 0.000000 0.000000 0.000000 0.000000 0.000000 24.266344 -20.700651 0.220767 -11.128881 6.016093 4.963087 -41.347119 10.085941 10.839064 41.542041 24.344882 -10.302556 0.000000 0.000000 0.000000 0.000000 0.000000 0.000000 2.727953 1.510183 -8.231525 1.099928 -1.180284 0.174955 3.265376 21.047334 10.471314 0.000000 0.000000 0.000000 0.910600 -0.817272 -8.496475 3.054655 0.557952 0.532725 12.555258 -43.548659 64.459403 0.000000 0.000000 0.000000
110.198062 70.097886 399.165640 -3.459659 -0.683602 7.749769 -0.190131 0.286200 -7.886114 0.134537 0.221747 -0.135353 3.226047 -1.977436 0.248512 0.000000 0.000000 0.000000 0.538780 -2.839655 0.805031 1.916423 4.384515 -0.404449 -5.435736 18.035742 5.898253 -0.645132 -26.840712 -5.040388 0.000000 0.000000 0.000000 0.000000 0.000000 0.000000 24.755395 -21.406842 0.376196 -10.271017 7.142389 3.635739 -45.834205 7.306291 11.718467 44.445791 23.749829 -10.153286 0.000000 0.000000 0.000000 0.000000 0.000000 0.000000 2.507535 1.472009 -7.926363 1.177265 -1.110182 0.175769 2.373169 21.960811 11.081330 0.000000 0.000000 0.000000 0.707972 -0.692658 -8.203585 2.960250 0.288190 0.495953 9.371593 -41.187412 56.869914 0.000000 0.000000 0.000000
110.352065 70.105098 399.155255 -3.284056 -0.699634 7.469533 -0.238106 0.311214 -7.600407 0.203154 0.198487 -0.126604 2.866725 -1.965455 0.220039 0.000000 0.000000 0.000000 0.655300 -2.394769 0.725444 1.449808 3.744979 -0.244151 -6.571197 21.770304 7.310551 0.531272 -28.663269 -5.965286 0.000000 0.000000 0.000000 0.000000 0.000000 0.000000 25.122809 -22.150248 0.556046 -9.744384 8.072182 2.723297 -48.760853 7.015514 13.164559 43.606746 21.968651 -9.508177 0.000000 0.000000 0.000000 0.000000 0.000000 0.000000 2.193263 1.449206 -7.647124 1.301268 -1.018973 0.178610 3.309386 19.490911 9.686863 0.000000 0.000000 0.000000 0.398771 -0.508187 -7.943235 2.990828 -0.008131 0.486994 9.417405 -41.067709 56.253052 0.000000 0.000000 0.000000
110.434647 70.125831 399.126752 -3.167446 -0.688694 7.181759 -0.313336 0.329956 -7.309405 0.302393 0.163410 -0.119384 2.804357 -1.986129 0.216667 0.000000 0.000000 0.000000 0.869641 -1.927215 0.642393 1.536185 2.967793 -0.274799 -7.802863 23.525785 8.118266 0.283791 -32.605285 -6.568261 0.000000 0.000000 0.000000 0.000000 0.000000 0.000000 25.585848 -22.936682 0.762459 -9.850811 9.131569 2.294876 -49.818430 6.293877 13.399884 45.686617 20.629921 -9.211412 0.000000 0.000000 0.000000 0.000000 0.000000 0.000000 2.031774 1.341009 -7.351543 1.322165 -0.892436 0.169966 6.558454 16.090379 7.670684 0.000000 0.000000 0.000000 0.266093 -0.432689 -7.656549 2.927638 -0.170950 0.466869 8.527564 -39.472840 56.316989 0.000000 0.000000 0.000000
110.468691 70.137582 399.101075 -3.092635 -0.701743 6.856457 -0.335411 0.314910 -6.982785 0.430791 0.119925 -0.110137 2.616648 -1.930523 0.202681 0.000000 0.000000 0.000000 1.209148 -1.222580 0.523065 1.140673 2.555255 -0.202798 -7.160103 22.748847 7.847277 -1.811121 -33.443910 -7.018629 0.000000 0.000000 0.000000 0.000000 0.000000 0.000000 25.997534 -23.679496 0.954788 -10.483480 10.063740 2.423342 -48.243751 5.841860 12.592641 45.014752 24.230061 -10.410709 0.000000 0.000000 0.000000 0.000000 0.000000 0.000000 1.984653 1.243437 -7.015589 0.312039 -0.204512 -0.151092 15.948815 2.045508 2.359773 0.000000 0.000000 0.000000 0.282759 -0.391945 -7.316812 2.725367 -0.190775 0.418679 8.268555 -38.757927 56.753695 0.000000 0.000000 0.000000
110.495743 70.152605 399.083235 -3.029500 -0.726899 6.581200 -0.317301 0.290771 -6.706174 0.552614 0.086539 -0.099885 2.264870 -1.685307 0.174902 0.000000 0.000000 0.000000 1.404922 -0.432656 0.384135 0.442304 2.653108 -0.035370 -5.116331 18.755321 6.378641 -4.703405 -28.875001 -6.403843 0.000000 0.000000 0.000000 0.000000 0.000000 0.000000 26.581623 -24.225633 1.041308 -10.218060 9.991474 2.111677 -51.149308 7.673957 15.083843 47.079141 24.496856 -11.081237 0.000000 0.000000 0.000000 0.000000 0.000000 0.000000 1.946191 1.196966 -6.733335 1.235334 -0.682572 0.145895 14.971920 6.332923 3.292405 0.000000 0.000000 0.000000 0.386573 -0.361689 -7.015891 2.433155 -0.171223 0.354336 8.798155 -39.133998 57.536907 0.000000 0.000000 0.000000
110.541452 70.173592 399.043045 -2.932240 -0.717052 6.291853 -0.288164 0.242224 -6.413572 0.644886 0.061534 -0.089297 1.787891 -1.404920 0.138291 0.000000 0.000000 0.000000 1.139959 0.066298 0.295353 0.470658 3.124220 -0.030496 -2.695264 14.482710 5.135644 -4.898541 -24.252254 -5.166004 0.000000 0.000000 0.000000 0.000000 0.000000 0.000000 26.580298 -24.475064 1.090905 -11.326984 9.977173 3.179740 -44.020029 8.511475 12.453042 46.236381 28.691995 -12.908148 0.000000 0.000000 0.000000 0.000000 0.000000 0.000000 1.797805 1.092428 -6.437363 1.266585 -0.563174 0.138649 16.508165 4.094156 2.525880 0.000000 0.000000 0.000000 0.335545 -0.377604 -6.718474 2.361807 -0.056942 0.337910 10.140677 -40.734160 58.876799 0.000000 0.000000 0.000000
110.601466 70.191135 398.988448 -2.825124 -0.671262 6.045468 -0.238865 0.200939 -6.161633 0.710758 0.054313 -0.078248 1.150355 -1.145729 0.090390 0.000000 0.000000 0.000000 2.371520 0.451255 0.172769 -0.869330 4.074145 -0.081293 -0.953976 9.735562 4.165340 -5.517004 -18.703013 -3.981404 0.000000 0.000000 0.000000 0.000000 0.000000 0.000000 27.166363 -24.687192 1.043778 -12.002186 9.336160 3.911922 -44.116817 7.057599 11.512857 44.737529 28.746461 -12.197543 0.000000 0.000000 0.000000 0.000000 0.000000 0.000000 1.556687 0.941389 -6.187052 1.377415 -0.425891 0.136006 10.564719 18.191829 8.146852 0.000000 0.000000 0.000000 0.239621 -0.449136 -6.468695 2.357696 0.095087 0.336848 12.576943 -43.441792 61.185724 0.000000 0.000000 0.000000
